<?xml version="1.0" encoding="iso-8859-1"?>
<!-- Generator: Adobe Illustrator 19.0.0, SVG Export Plug-In . SVG Version: 6.00 Build 0)  -->
<svg xmlns="http://www.w3.org/2000/svg" xmlns:xlink="http://www.w3.org/1999/xlink" version="1.1" id="Capa_1" x="0px" y="0px" viewBox="0 0 470 470" style="enable-background:new 0 0 470 470;" xml:space="preserve" width="512px" height="512px">
<g>
	<path d="M433.081,94.348l-39.822-7.53V37.5c0-20.678-16.822-37.5-37.5-37.5H114.241c-20.678,0-37.5,16.822-37.5,37.5v49.318   l-39.843,7.535C19.111,97.768,4.64,115.282,4.64,133.394v302.455C4.64,454.68,19.959,470,38.791,470h392.418   c18.831,0,34.151-15.32,34.151-34.151V133.394C465.36,115.282,450.89,97.768,433.081,94.348z M91.741,37.5   c0-12.407,10.093-22.5,22.5-22.5h241.518c12.406,0,22.5,10.093,22.5,22.5v51.419l-77.25,49.244l-30.701-48.16l72.431-46.18   c3.492-2.227,4.519-6.864,2.292-10.356c-2.228-3.493-6.863-4.519-10.356-2.292l-76.91,49.036h-45.529l-76.904-49.033   c-3.494-2.226-8.129-1.2-10.356,2.292c-2.227,3.493-1.201,8.129,2.292,10.356l72.425,46.177l-30.701,48.16l-77.25-49.244V37.5z    M125.39,128.158l41.862,26.686c3.493,2.227,8.13,1.2,10.356-2.292l10.712-16.804l17.545,43.163l-22.833,150.068   c-0.623,4.095,2.191,7.92,6.287,8.543c0.382,0.058,0.762,0.086,1.137,0.086c3.644,0,6.84-2.66,7.405-6.373l22.175-145.737h29.93   l22.175,145.737c0.565,3.712,3.762,6.373,7.406,6.373c0.375,0,0.755-0.028,1.137-0.086c4.096-0.623,6.91-4.448,6.287-8.543   L264.136,178.91l17.544-43.162l10.711,16.803c1.43,2.243,3.854,3.469,6.331,3.469c1.38,0,2.775-0.38,4.024-1.177l41.863-26.686   v127.123c0,60.439-49.171,109.61-109.61,109.61s-109.61-49.171-109.61-109.61V128.158z M214.161,95.212h41.678l15.954,25.026   l-20.43,50.26h-32.726l-20.43-50.261L214.161,95.212z M450.36,435.849c0,10.56-8.591,19.151-19.151,19.151H38.791   c-10.56,0-19.151-8.591-19.151-19.151V133.394c0-11.087,9.199-22.22,20.066-24.307l43.009-8.133l27.675,17.642v136.685   c0,68.71,55.9,124.61,124.61,124.61c68.71,0,124.61-55.9,124.61-124.61V118.595l27.674-17.641l42.989,8.129   c10.888,2.091,20.087,13.224,20.087,24.311V435.849z" fill="#FFFFFF"/>
	<circle cx="400" cy="361.47" r="7.5" fill="#FFFFFF"/>
	<circle cx="370" cy="391.47" r="7.5" fill="#FFFFFF"/>
</g>
<g>
</g>
<g>
</g>
<g>
</g>
<g>
</g>
<g>
</g>
<g>
</g>
<g>
</g>
<g>
</g>
<g>
</g>
<g>
</g>
<g>
</g>
<g>
</g>
<g>
</g>
<g>
</g>
<g>
</g>
</svg>
